<?xml version="1.0" encoding="UTF-8" standalone="no"?>
<svg
   xmlns:dc="http://purl.org/dc/elements/1.1/"
   xmlns:cc="http://creativecommons.org/ns#"
   xmlns:rdf="http://www.w3.org/1999/02/22-rdf-syntax-ns#"
   xmlns:svg="http://www.w3.org/2000/svg"
   xmlns="http://www.w3.org/2000/svg"
   viewBox="0 0 286.69333 231.05333"
   height="231.05333"
   width="286.69333"
   xml:space="preserve"
   id="svg2"
   version="1.1"><metadata
     id="metadata8"><rdf:RDF><cc:Work
         rdf:about=""><dc:format>image/svg+xml</dc:format><dc:type
           rdf:resource="http://purl.org/dc/dcmitype/StillImage" /></cc:Work></rdf:RDF></metadata><defs
     id="defs6" /><g
     transform="matrix(1.3333333,0,0,-1.3333333,0,231.05333)"
     id="g10"><g
       transform="scale(0.1)"
       id="g12"><path
         id="path14"
         style="fill:#e81b00;fill-opacity:1;fill-rule:nonzero;stroke:none"
         d="M 576.688,189.23 466.547,0.351563 1796.5,0 c 127.66,0 241.96,66.0117 305.79,176.57 63.87,110.571 63.83,242.532 0,353.102 l -592.7,1026.618 c -63.85,110.57 -178.17,176.57 -305.83,176.57 -127.66,0 -241.959,-66 -305.787,-176.57 L 0,0.351563 H 225.52 L 1067.14,1458.63 c 28.52,49.4 79.6,78.89 136.62,78.89 57.04,0 108.14,-29.49 136.66,-78.89 L 1933.13,432 c 28.46,-49.301 28.5,-108.309 0,-157.762 -28.52,-49.406 -79.59,-78.898 -136.63,-78.898 L 568.398,189.23" /><path
         id="path16"
         style="fill:#e81b00;fill-opacity:1;fill-rule:nonzero;stroke:none"
         d="m 1204.23,1272.57 -317.535,-543.14 460.005,295 z" /><path
         id="path18"
         style="fill:#e81b00;fill-opacity:1;fill-rule:nonzero;stroke:none"
         d="m 833.695,637.43 -72,-125.84 L 1524.23,719.23 1408.42,915.355 833.695,637.43" /><path
         id="path20"
         style="fill:#e81b00;fill-opacity:1;fill-rule:nonzero;stroke:none"
         d="m 713.695,429.23 -39,-70 H 1730.9 L 1583.7,613.391 713.695,429.23" /></g></g></svg>
